<?xml version="1.0" standalone="no"?>
<!DOCTYPE svg PUBLIC "-//W3C//DTD SVG 20010904//EN"
 "http://www.w3.org/TR/2001/REC-SVG-20010904/DTD/svg10.dtd">
<svg version="1.0" xmlns="http://www.w3.org/2000/svg"
 width="256.000000pt" height="256.000000pt" viewBox="0 0 256.000000 256.000000"
 preserveAspectRatio="xMidYMid meet">
<metadata>
Created by potrace 1.11, written by Peter Selinger 2001-2013
</metadata>
<g transform="translate(0.000000,256.000000) scale(0.100000,-0.100000)"
fill="#000000" stroke="none">
<path d="M2030 2240 l0 -110 50 0 50 0 0 110 0 110 -50 0 -50 0 0 -110z"/>
<path d="M1460 2254 c-64 -17 -139 -63 -177 -108 -37 -43 -72 -122 -79 -178
l-7 -48 -63 0 -64 0 0 -69 0 -68 -57 -21 c-140 -51 -273 -160 -358 -290 -185
-288 -154 -660 77 -907 212 -227 510 -301 801 -200 105 36 174 82 272 180 151
150 217 307 218 520 1 292 -155 541 -418 671 -50 24 -96 44 -103 44 -8 0 -12
22 -12 70 l0 70 -65 0 c-74 0 -78 6 -46 75 23 51 70 91 122 105 107 29 229
-60 229 -166 0 -53 29 -129 64 -171 104 -120 296 -105 381 31 25 42 31 62 34
128 l3 78 -81 0 -81 0 0 -59 c0 -52 -3 -62 -26 -80 -35 -27 -66 -26 -100 2
-22 19 -29 36 -35 91 -10 82 -35 141 -85 195 -48 54 -111 91 -183 107 -69 17
-92 17 -161 -2z"/>
<path d="M2302 2167 l-72 -73 38 -37 38 -37 74 75 74 75 -34 35 c-19 19 -37
35 -40 35 -3 0 -38 -33 -78 -73z"/>
<path d="M2350 1865 l0 -55 105 0 105 0 0 55 0 55 -105 0 -105 0 0 -55z"/>
</g>
</svg>
